<svg version="1.1" id="Layer_1" xmlns="http://www.w3.org/2000/svg" xmlns:xlink="http://www.w3.org/1999/xlink" x="0px" y="0px"
	 viewBox="0 0 16 16" style="enable-background:new 0 0 16 16;" xml:space="preserve">
	<g id="Outline_Icons">
		<path fill-rule="evenodd" clip-rule="evenodd" d="M0.400391 2.3C0.400391 1.02386 1.42425 0 2.70039 0H7.40039C8.05193 0 8.55652 0.267096 9.00039 0.6C9.01932 0.614196 9.03721 0.629717 9.05394 0.646447L13.0539 4.64645C13.4374 5.02992 13.7004 5.55351 13.7004 6.2V13.7C13.7004 14.9761 12.6765 16 11.4004 16H10.5004H2.40039C1.32425 16 0.400391 15.0761 0.400391 14V6.3V2.3ZM2.70039 1C1.97653 1 1.40039 1.57614 1.40039 2.3V6.3V14C1.40039 14.5239 1.87653 15 2.40039 15H10.5004H11.4004C12.1242 15 12.7004 14.4239 12.7004 13.7V6.2C12.7004 6.16602 12.6991 6.13276 12.6966 6.1002H9.2C8.22386 6.1002 7.5 5.37634 7.5 4.4002V1.00372C7.46722 1.00124 7.43405 1 7.40039 1H2.70039ZM8.5 1.50672V4.4002C8.5 4.82405 8.77614 5.1002 9.2 5.1002H12.0935L8.5 1.50672ZM4.40039 2.2002C4.67653 2.2002 4.90039 2.42405 4.90039 2.7002V3.8999H6.0002C6.27634 3.8999 6.5002 4.12376 6.5002 4.3999C6.5002 4.67604 6.27634 4.8999 6.0002 4.8999H4.90039V6.0002C4.90039 6.27634 4.67653 6.5002 4.40039 6.5002C4.12425 6.5002 3.90039 6.27634 3.90039 6.0002V4.8999H2.7002C2.42405 4.8999 2.2002 4.67604 2.2002 4.3999C2.2002 4.12376 2.42405 3.8999 2.7002 3.8999H3.90039V2.7002C3.90039 2.42405 4.12425 2.2002 4.40039 2.2002ZM2.7002 7.7002C2.42405 7.7002 2.2002 7.92405 2.2002 8.2002C2.2002 8.47634 2.42405 8.7002 2.7002 8.7002H11.3002C11.5763 8.7002 11.8002 8.47634 11.8002 8.2002C11.8002 7.92405 11.5763 7.7002 11.3002 7.7002H2.7002ZM2.2002 10.3999C2.2002 10.1238 2.42405 9.8999 2.7002 9.8999H11.3002C11.5763 9.8999 11.8002 10.1238 11.8002 10.3999C11.8002 10.676 11.5763 10.8999 11.3002 10.8999H2.7002C2.42405 10.8999 2.2002 10.676 2.2002 10.3999ZM2.7002 12.1001C2.42405 12.1001 2.2002 12.324 2.2002 12.6001C2.2002 12.8762 2.42405 13.1001 2.7002 13.1001H11.3002C11.5763 13.1001 11.8002 12.8762 11.8002 12.6001C11.8002 12.324 11.5763 12.1001 11.3002 12.1001H2.7002Z"/>
	</g>
</svg>
