<svg version="1.1" id="Outline_x5F_Icons"
	xmlns="http://www.w3.org/2000/svg"
	xmlns:xlink="http://www.w3.org/1999/xlink" x="0px" y="0px" viewBox="0 0 16 16">
	<g id="Outline_Icons">
		<path d="M1.00624 2.32936C1.00624 1.59634 1.58598 1.0129 2.31435 1.0129H11.0686C11.3465 1.0129 11.5717 0.786211 11.5717 0.506573C11.5717 0.226935 11.3465 0.000244141 11.0686 0.000244141H2.31435C1.03025 0.000244141 0 1.03706 0 2.32936V13.6711C0 14.9634 1.03025 16.0002 2.31435 16.0002H13.6848C14.969 16.0002 15.9992 14.9634 15.9992 13.6711V8.00024C15.9992 7.72061 15.7739 7.49392 15.4961 7.49392C15.2182 7.49392 14.993 7.72061 14.993 8.00024V13.6711C14.993 14.4042 14.4132 14.9876 13.6848 14.9876H2.31435C1.58598 14.9876 1.00624 14.4042 1.00624 13.6711V2.32936ZM12.9813 1.82293C13.1825 1.6204 13.4844 1.6204 13.6856 1.82293L15.8994 3.94951C15.8994 4.00015 15.9245 4.07609 15.9497 4.15204C15.9748 4.22799 16 4.30394 16 4.35458C16 4.45584 15.8994 4.65837 15.7988 4.75964L9.56007 11.0381C9.50976 11.0888 9.45945 11.1141 9.40914 11.1394C9.35882 11.1647 9.30851 11.19 9.2582 11.2407L5.63574 12.8609C5.43449 12.9622 5.13262 12.8609 5.032 12.7596C4.93137 12.5571 4.83075 12.3546 4.93137 12.152L6.54135 8.40521C6.54135 8.30394 6.64197 8.20268 6.7426 8.10142L6.7426 8.10141L12.9813 1.82293ZM13.3838 2.93685L7.44697 8.81027L6.7426 10.5318L7.24572 11.0381L8.8557 10.3293L14.7925 4.35458L13.3838 2.93685Z"/>
	</g>
</svg>
