<svg width="40" height="40" viewBox="0 0 40 40" xmlns="http://www.w3.org/2000/svg">
	<g id="Outline_Icons">
		<path fill-rule="evenodd" clip-rule="evenodd" d="M8.05656 1C6.00162 1 4.2998 2.70182 4.2998 4.75676V7.20159C4.42792 7.49029 4.73596 7.97688 5.21368 8.52158C5.39302 7.99487 5.77252 7.54092 6.27122 7.3285C5.56024 6.79998 5.09961 5.95359 5.09961 4.99961C5.09961 3.39798 6.39798 2.09961 7.99961 2.09961C9.60124 2.09961 10.8996 3.39798 10.8996 4.99961C10.8996 5.97054 10.4225 6.83002 9.68986 7.35637C10.1967 7.59734 10.5717 8.09066 10.7243 8.64789L10.7424 8.6226C11.0559 8.18245 11.3098 7.76838 11.4853 7.46433C11.5729 7.31258 11.6405 7.18891 11.6859 7.10396C11.7086 7.0615 11.7256 7.02876 11.7368 7.00708L11.7491 6.98303L11.7519 6.97754L11.7524 6.97649L11.7525 6.97646L11.8133 7.007V4.75676C11.8133 2.70182 10.1115 1 8.05656 1ZM8.00671 10.6446C7.28855 10.3182 6.64539 9.875 6.09961 9.40196V9.2002C6.09961 8.60502 6.54204 8.2002 6.89961 8.2002H8.99961C9.35718 8.2002 9.79961 8.60502 9.79961 9.2002V9.77646C9.36537 10.2305 8.89276 10.6165 8.40884 10.8377C8.27859 10.7718 8.14453 10.7073 8.00671 10.6446ZM11.8133 8.83062C11.7328 8.95137 11.6472 9.07599 11.5569 9.20279C11.0206 9.95554 10.2808 10.8395 9.41426 11.4159C9.91013 11.7371 10.3243 12.0618 10.6529 12.3475C10.9545 12.6098 11.1853 12.8404 11.3422 13.0073L11.3529 13.0187C11.6391 12.4865 11.8133 11.8623 11.8133 11.2432V8.83062ZM4.2998 11.2432V8.99126C4.43108 9.14898 4.57298 9.30907 4.72449 9.46885C5.44459 10.2282 6.42051 11.0221 7.5929 11.555C8.63924 12.0306 9.4491 12.6259 9.99672 13.1021C10.2701 13.3398 10.4768 13.5467 10.6136 13.6923C10.67 13.7522 10.7144 13.8016 10.7466 13.8384C10.0361 14.552 9.11695 15 8.05656 15C6.00162 15 4.2998 13.2982 4.2998 11.2432ZM3.2998 4.75676C3.2998 2.14953 5.44934 0 8.05656 0C10.6638 0 12.8133 2.14953 12.8133 4.75676V11.2432C12.8133 12.3813 12.3618 13.5091 11.6794 14.3051L11.6736 14.312L11.6735 14.3119C10.784 15.3126 9.53965 16 8.05656 16C5.44934 16 3.2998 13.8505 3.2998 11.2432V7.59459V4.75676ZM6.09961 4.99961C6.09961 3.95027 6.95027 3.09961 7.99961 3.09961C9.04895 3.09961 9.89961 3.95027 9.89961 4.99961C9.89961 6.04895 9.04895 6.89961 7.99961 6.89961C6.95027 6.89961 6.09961 6.04895 6.09961 4.99961Z"/>
	</g>
</svg>
