<svg width="40" height="40" viewBox="0 0 40 40" xmlns="http://www.w3.org/2000/svg">
	<g id="Outline_Icons">
		<path d="M2.41275 3C1.66167 3 1 3.59621 1 4.4V12.1C1 12.8379 1.5954 13.5 2.41275 13.5H13.4866C14.3553 13.5 15 12.8878 15 12.1V4.4C15 3.66205 14.4046 3 13.5872 3H2.41275ZM0 4.4C0 3.00379 1.15041 2 2.41275 2H13.5872C14.9847 2 16 3.13795 16 4.4V12.1C16 13.5122 14.8326 14.5 13.4866 14.5H2.41275C1.01534 14.5 0 13.3621 0 12.1V4.4ZM8.40039 6.1001C8.40039 5.82396 8.62425 5.6001 8.90039 5.6001H12.3004C12.5765 5.6001 12.8004 5.82396 12.8004 6.1001C12.8004 6.37624 12.5765 6.6001 12.3004 6.6001H8.90039C8.62425 6.6001 8.40039 6.37624 8.40039 6.1001ZM8.90039 7.69995C8.62425 7.69995 8.40039 7.92381 8.40039 8.19995C8.40039 8.47609 8.62425 8.69995 8.90039 8.69995H12.0004C12.2765 8.69995 12.5004 8.47609 12.5004 8.19995C12.5004 7.92381 12.2765 7.69995 12.0004 7.69995H8.90039ZM8.40039 10.4001C8.40039 10.124 8.62425 9.90015 8.90039 9.90015H13.1004C13.3765 9.90015 13.6004 10.124 13.6004 10.4001C13.6004 10.6763 13.3765 10.9001 13.1004 10.9001H8.90039C8.62425 10.9001 8.40039 10.6763 8.40039 10.4001ZM2.59961 10.9001H6.59961C6.89961 10.9001 7.09961 10.7001 7.09961 10.4001V5.90015C7.09961 5.60015 6.89961 5.40015 6.59961 5.40015H2.59961C2.29961 5.40015 2.09961 5.60015 2.09961 5.90015V10.4001C2.09961 10.7001 2.29961 10.9001 2.59961 10.9001Z"/>
	</g>
</svg>
