<svg version="1.1" id="Layer_1" xmlns="http://www.w3.org/2000/svg" xmlns:xlink="http://www.w3.org/1999/xlink" x="0px" y="0px"
	 viewBox="0 0 16 16" style="enable-background:new 0 0 16 16;" xml:space="preserve">
	<g id="Outline_Icons">
		<path fill-rule="evenodd" clip-rule="evenodd" d="M14.5664 3.8125H13.6328V13.5C13.6328 14.8807 12.5181 16 11.1432 16H4.85685C3.48186 16 2.36722 14.8807 2.36722 13.5V3.8125L1.43361 3.8125L0.997925 3.8125C0.722929 3.8125 0.5 3.58864 0.5 3.3125C0.5 3.03636 0.722929 2.8125 0.997925 2.8125H1.43361V2.5C1.43361 1.11929 2.54825 0 3.92324 0H12.0768C13.4517 0 14.5664 1.11929 14.5664 2.5V2.8125H15.0021C15.2771 2.8125 15.5 3.03636 15.5 3.3125C15.5 3.58864 15.2771 3.8125 15.0021 3.8125H14.5664ZM3.36307 3.8125H12.6369V13.5C12.6369 14.3284 11.9681 15 11.1432 15H4.85685C4.03186 15 3.36307 14.3284 3.36307 13.5V3.8125ZM13.5705 2.8125L2.42946 2.8125V2.5C2.42946 1.67157 3.09825 1 3.92324 1L12.0768 1C12.9018 0.999999 13.5705 1.67157 13.5705 2.5V2.8125ZM5.97718 6C5.70218 6 5.47925 6.22386 5.47925 6.5V11C5.47925 11.2761 5.70218 11.5 5.97718 11.5C6.25218 11.5 6.4751 11.2761 6.4751 11V9.5H7.21473L8.18291 10.8611L7.08845 12.1799C6.9124 12.3921 6.94095 12.7073 7.1522 12.8841C7.36346 13.0609 7.67744 13.0322 7.85348 12.8201L8.7812 11.7022L9.55544 12.7907C9.71528 13.0154 10.0263 13.0674 10.25 12.9069C10.4738 12.7464 10.5256 12.4341 10.3658 12.2094L9.44017 10.9081L10.3431 9.8201C10.5192 9.60797 10.4906 9.29268 10.2794 9.1159C10.0681 8.93912 9.75413 8.96778 9.57808 9.17992L8.84188 10.067L8.35366 9.38069C9.0028 9.12612 9.46266 8.49199 9.46266 7.75C9.46266 6.7835 8.68241 6 7.71992 6H5.97718ZM7.47073 8.5H7.71992C8.13241 8.5 8.46681 8.16421 8.46681 7.75C8.46681 7.33579 8.13241 7 7.71992 7H6.4751V8.5H7.47041H7.47073Z"/>
	</g>
</svg>
