<svg version="1.1" id="Outline_x5F_Icons"
	xmlns="http://www.w3.org/2000/svg"
	xmlns:xlink="http://www.w3.org/1999/xlink" x="0px" y="0px" viewBox="0 0 16 16">
	<g id="Outline_Icons">
<path fill-rule="evenodd" clip-rule="evenodd" d="M2.5 4.00024C2.5 1.79111 4.29086 0.000244141 6.5 0.000244141C8.70914 0.000244141 10.5 1.79111 10.5 4.00024V5.22749L13.0625 2.665C13.168 2.55951 13.3111 2.50024 13.4602 2.50024C13.6094 2.50024 13.7525 2.55951 13.858 2.665L15.8353 4.64227C16.0549 4.86194 16.0549 5.21809 15.8353 5.43776L13 8.27302V13.5002C13 14.881 11.8807 16.0002 10.5 16.0002H2.5C1.11929 16.0002 0 14.881 0 13.5002V8.00024C0 6.61953 1.11929 5.50024 2.5 5.50024V4.00024ZM12 9.27302L8.47155 12.8015C8.38721 12.8858 8.28756 12.9533 8.17794 13.0003L5.53928 14.1311L5.47165 14.1987L5.44459 14.1717L4.78409 14.4548C4.57268 14.5454 4.3274 14.4981 4.16476 14.3355C4.00212 14.1729 3.95489 13.9276 4.04549 13.7162L5.5 10.3223C5.54698 10.2127 5.61445 10.113 5.69878 10.0287L9.22724 6.50024H2.5C1.67157 6.50024 1 7.17182 1 8.00024V13.5002C1 14.3287 1.67157 15.0002 2.5 15.0002H10.5C11.3284 15.0002 12 14.3287 12 13.5002V9.27302ZM9.5 4.00024V5.50024H3.5V4.00024C3.5 2.34339 4.84315 1.00024 6.5 1.00024C8.15685 1.00024 9.5 2.34339 9.5 4.00024ZM7.70159 11.9804L6.01954 12.7013L5.79893 12.4807L6.51981 10.7987L13.4602 3.85824L14.642 5.04002L7.70159 11.9804Z"/>
	</g>
</svg>
