<?xml version="1.0" encoding="utf-8"?>
<!-- Generator: Adobe Illustrator 16.0.3, SVG Export Plug-In . SVG Version: 6.00 Build 0)  -->
<!DOCTYPE svg PUBLIC "-//W3C//DTD SVG 1.1//EN" "http://www.w3.org/Graphics/SVG/1.1/DTD/svg11.dtd">
<svg version="1.1" xmlns="http://www.w3.org/2000/svg" xmlns:xlink="http://www.w3.org/1999/xlink" x="0px" y="0px" width="24px"
	 height="24px" viewBox="0 0 24 24" enable-background="new 0 0 24 24" xml:space="preserve">
<g id="Outline_Icons_1_">
	<g id="Outline_Icons">
		<g>
			<path fill="#9E9E9E" d="M23.813,0.111c-0.215-0.174-0.53-0.14-0.703,0.076L8.96,17.753l-4.606-4.606c-0.195-0.195-0.512-0.195-0.707,0
				s-0.195,0.512,0,0.707l5,5c0.208,0.209,0.555,0.194,0.743-0.04l14.5-18C24.062,0.599,24.029,0.284,23.813,0.111z"/>
			<path fill="#9E9E9E" d="M18.162,12.006c-0.269,0.062-0.438,0.33-0.376,0.599C17.928,13.227,18,13.865,18,14.5c0,4.687-3.813,8.5-8.5,8.5
				S1,19.187,1,14.5C1,9.813,4.813,6,9.5,6c1.326,0,2.597,0.298,3.778,0.883c0.247,0.124,0.547,0.022,0.67-0.226
				c0.123-0.247,0.022-0.547-0.226-0.669C12.402,5.333,10.981,5,9.5,5C4.262,5,0,9.262,0,14.5S4.262,24,9.5,24s9.5-4.262,9.5-9.5
				c0-0.71-0.081-1.423-0.239-2.118C18.699,12.113,18.431,11.942,18.162,12.006z"/>
		</g>
	</g>
</g>
<g id="Invisible_Shape">
	<rect fill="none" width="24" height="24"/>
</g>
</svg>
