<svg id="Camada_1" data-name="Camada 1" xmlns="http://www.w3.org/2000/svg" xmlns:xlink="http://www.w3.org/1999/xlink" viewBox="0 0 1080 280"><defs><style>.cls-1,.cls-2,.cls-3,.cls-4{fill-rule:evenodd;}.cls-1{fill:url(#linear-gradient);}.cls-2{fill:url(#linear-gradient-2);}.cls-3{fill:url(#linear-gradient-3);}.cls-4{fill:url(#linear-gradient-4);}.cls-5{fill:#0062a5;}.cls-6,.cls-7{fill:#009b88;}.cls-7{font-size:32px;font-family:NewsSansWebSubset-Regular, NewsSansWebSubset;letter-spacing:0.2em;}.cls-8{letter-spacing:0.2em;}</style><linearGradient id="linear-gradient" x1="61.33" y1="141.5" x2="127.33" y2="141.5" gradientUnits="userSpaceOnUse"><stop offset="0" stop-color="#00edcb"/><stop offset="1" stop-color="#009b88"/></linearGradient><linearGradient id="linear-gradient-2" x1="149.54" y1="174.5" x2="149.54" y2="42.5" xlink:href="#linear-gradient"/><linearGradient id="linear-gradient-3" x1="193.33" y1="141.5" x2="259.33" y2="141.5" gradientUnits="userSpaceOnUse"><stop offset="0" stop-color="#015eab"/><stop offset="1" stop-color="#00a1e8"/></linearGradient><linearGradient id="linear-gradient-4" x1="171.12" y1="108.5" x2="171.12" y2="240.5" gradientUnits="userSpaceOnUse"><stop offset="0" stop-color="#00a1e8"/><stop offset="1" stop-color="#015eab"/></linearGradient></defs><path class="cls-1" d="M61.33,108.5h66v44.42a21.64,21.64,0,0,1-21.58,21.58H61.33Z"/><path class="cls-2" d="M186.24,108.5c5.06-5.08,7.09-11.8,7.09-19.13V42.5h-66V152.92a21.64,21.64,0,0,1-21.58,21.58h2.47a28.29,28.29,0,0,0,20.71-8.58Z"/><path class="cls-3" d="M259.33,174.5h-66V130.08a21.64,21.64,0,0,1,21.58-21.58h44.42Z"/><path class="cls-4" d="M134.42,174.5c-5.06,5.06-7.09,11.78-7.09,19.11V240.5h66V130.08a21.64,21.64,0,0,1,21.58-21.58h-2.45a28.3,28.3,0,0,0-20.73,8.58Z"/><path class="cls-5" d="M491.33,72.48A33.32,33.32,0,0,0,479.78,59.2a47.74,47.74,0,0,0-15.07-6.63,82.11,82.11,0,0,0-19.78-2.08H389.6a47.33,47.33,0,0,1,10,11.8c4,6.72,6.07,15,6.07,24.55,0,12.93-3.15,23.85-9.36,32.44q-1.31,1.8-2.75,3.5v15.66l33.24,42V139.55h17.42a65.39,65.39,0,0,0,12.85-1.16,55.82,55.82,0,0,0,10.62-3.2,44.33,44.33,0,0,0,8.93-5,57.36,57.36,0,0,0,7.42-6.4,37.11,37.11,0,0,0,8.45-14,52.89,52.89,0,0,0,2.93-17.6Q495.42,80.8,491.33,72.48Zm-31.24,30.18a17.49,17.49,0,0,1-4.58,6.84,14.45,14.45,0,0,1-4.58,2.89,24.43,24.43,0,0,1-5.64,1.74,50.92,50.92,0,0,1-7.29.62c-2.78.06-5.75.09-8.89.09H426.8V75.2h4.71q7.38,0,11.69.31a27.61,27.61,0,0,1,9,2.35,14.05,14.05,0,0,1,6.4,5.56,17.08,17.08,0,0,1,2.67,9.64A31,31,0,0,1,460.09,102.66Z"/><path class="cls-6" d="M411.77,182.83H371.24L334.35,134.3H322.44v48.53H289.38V50.49h53.24a118.1,118.1,0,0,1,19.2,1.37,40.81,40.81,0,0,1,15.11,5.74,34.67,34.67,0,0,1,11.29,11.51q4.17,7,4.17,17.73,0,15.19-6.84,24.66a48.09,48.09,0,0,1-18.31,15.07ZM358.26,91a18.11,18.11,0,0,0-1.91-8.58A12.62,12.62,0,0,0,350,76.88a23,23,0,0,0-6.94-1.68q-3.82-.36-9.51-.36H322.44v35.64H332a70.32,70.32,0,0,0,11.78-.84A17.42,17.42,0,0,0,352,106a15.66,15.66,0,0,0,4.76-6A22.46,22.46,0,0,0,358.26,91Z"/><path class="cls-5" d="M528.71,165.57q-12.42-15-12.42-45.91,0-34,13.89-50.13T572,53.43a82.78,82.78,0,0,1,21.16,2.76V68.88h-4.41a89.85,89.85,0,0,0-9.48-2.2,61.63,61.63,0,0,0-10.21-.74q-18.76,0-28.06,12.24t-9.29,39.64q0,26.31,9.39,38.18t30,11.87a68.59,68.59,0,0,0,18.77-3h4.42v12.7q-9.94,2.94-27.23,2.94Q541.12,180.56,528.71,165.57Z"/><path class="cls-5" d="M618.4,54.17h15.27V166.39h50.78v12.7H618.4Z"/><path class="cls-5" d="M704.87,54.17h15.27V179.09H704.87Z"/><path class="cls-5" d="M772.75,54.17l55,106.71Q827,141.74,827,135.3V54.17h14V179.09H822.24l-55-106.53q.74,15.82.74,23.37v83.16H754V54.17Z"/><path class="cls-5" d="M874.86,54.17h15.27V179.09H874.86Z"/><path class="cls-5" d="M929.41,165.57Q917,150.57,917,119.66q0-34,13.89-50.13t41.86-16.1a82.89,82.89,0,0,1,21.16,2.76V68.88h-4.42a89.71,89.71,0,0,0-9.47-2.2,61.85,61.85,0,0,0-10.22-.74q-18.76,0-28,12.24t-9.29,39.64q0,26.31,9.38,38.18t30,11.87a68.58,68.58,0,0,0,18.76-3H995v12.7q-9.93,2.94-27.23,2.94Q941.84,180.56,929.41,165.57Z"/><path class="cls-6" d="M272.83,202.84a106.68,106.68,0,0,1,38.83,1c-20.52,3.83-31.88,8-31.76,12.3.43,15.68,153.75,27.35,346.74,26.82h3.72c193,.53,346.31-11.14,346.74-26.82.12-4.3-11.24-8.47-31.76-12.3a106.68,106.68,0,0,1,38.83-1c14.07,2.34,33.91,8.84,33.83,13.59-.25,14.58-189.28,30.18-389.52,29.77C428.26,246.61,239.25,231,239,216.43,238.92,211.68,258.76,205.18,272.83,202.84Z"/><text class="cls-7" transform="translate(465.61 223.3)">Ge<tspan class="cls-8" x="47.36" y="0">s</tspan><tspan x="66.08" y="0">tão de Clínicas</tspan></text></svg>