<svg id="Camada_1" data-name="Camada 1" xmlns="http://www.w3.org/2000/svg" viewBox="0 0 780 200"><defs><style>.cls-1{fill:#0062a5;}.cls-2{fill:#009b88;}</style></defs><path class="cls-1" d="M238.83,55.48A33.32,33.32,0,0,0,227.28,42.2a47.74,47.74,0,0,0-15.07-6.63,82.11,82.11,0,0,0-19.78-2.08H137.1a47.33,47.33,0,0,1,10,11.8c4,6.72,6.07,15,6.07,24.55,0,12.93-3.15,23.85-9.36,32.44q-1.31,1.8-2.75,3.5v15.66l33.24,42V122.55h17.42a65.39,65.39,0,0,0,12.85-1.16,55.82,55.82,0,0,0,10.62-3.2,44.33,44.33,0,0,0,8.93-5,57.36,57.36,0,0,0,7.42-6.4,37.11,37.11,0,0,0,8.45-14,52.89,52.89,0,0,0,2.93-17.6Q242.92,63.8,238.83,55.48ZM207.59,85.66A17.49,17.49,0,0,1,203,92.5a14.45,14.45,0,0,1-4.58,2.89,24.43,24.43,0,0,1-5.64,1.74,50.92,50.92,0,0,1-7.29.62c-2.78.06-5.75.09-8.89.09H174.3V58.2H179q7.38,0,11.69.31a27.61,27.61,0,0,1,9,2.35,14.05,14.05,0,0,1,6.4,5.56,17.08,17.08,0,0,1,2.67,9.64A31,31,0,0,1,207.59,85.66Z"/><path class="cls-2" d="M159.27,165.83H118.74L81.85,117.3H69.94v48.53H36.88V33.49H90.12a118.1,118.1,0,0,1,19.2,1.37,40.81,40.81,0,0,1,15.11,5.74,34.67,34.67,0,0,1,11.29,11.51q4.17,7,4.17,17.73,0,15.19-6.84,24.66a48.09,48.09,0,0,1-18.31,15.07ZM105.76,74a18.11,18.11,0,0,0-1.91-8.58,12.62,12.62,0,0,0-6.35-5.56,23,23,0,0,0-6.94-1.68q-3.82-.36-9.51-.36H69.94V93.48h9.51a70.32,70.32,0,0,0,11.78-.84A17.42,17.42,0,0,0,99.45,89a15.66,15.66,0,0,0,4.76-6A22.46,22.46,0,0,0,105.76,74Z"/><path class="cls-1" d="M276.21,148.57q-12.42-15-12.42-45.91,0-34,13.89-50.13t41.85-16.1a82.78,82.78,0,0,1,21.16,2.76V51.88h-4.41a89.85,89.85,0,0,0-9.48-2.2,61.63,61.63,0,0,0-10.21-.74q-18.76,0-28.06,12.24t-9.29,39.64q0,26.31,9.39,38.18t30,11.87a68.59,68.59,0,0,0,18.77-3h4.42v12.7q-9.94,2.94-27.23,2.94Q288.62,163.56,276.21,148.57Z"/><path class="cls-1" d="M365.9,37.17h15.27V149.39H432v12.7H365.9Z"/><path class="cls-1" d="M452.37,37.17h15.27V162.09H452.37Z"/><path class="cls-1" d="M520.25,37.17l55,106.71q-.74-19.14-.73-25.58V37.17h14V162.09H569.74l-55-106.53q.74,15.82.74,23.37v83.16h-14V37.17Z"/><path class="cls-1" d="M622.36,37.17h15.27V162.09H622.36Z"/><path class="cls-1" d="M676.91,148.57q-12.42-15-12.42-45.91,0-34,13.89-50.13t41.86-16.1a82.89,82.89,0,0,1,21.16,2.76V51.88H737a89.71,89.71,0,0,0-9.47-2.2,61.85,61.85,0,0,0-10.22-.74q-18.76,0-28,12.24T680,100.82q0,26.31,9.38,38.18t30,11.87a68.58,68.58,0,0,0,18.76-3h4.42v12.7q-9.93,2.94-27.23,2.94Q689.34,163.56,676.91,148.57Z"/></svg>