<svg id="Camada_1" data-name="Camada 1" xmlns="http://www.w3.org/2000/svg" xmlns:xlink="http://www.w3.org/1999/xlink" viewBox="0 0 840 540"><defs><style>.cls-1,.cls-2,.cls-3,.cls-4{fill-rule:evenodd;}.cls-1{fill:url(#linear-gradient);}.cls-2{fill:url(#linear-gradient-2);}.cls-3{fill:url(#linear-gradient-3);}.cls-4{fill:url(#linear-gradient-4);}.cls-5{fill:#0062a5;}.cls-6{fill:#009b88;}</style><linearGradient id="linear-gradient" x1="320.33" y1="157.5" x2="386.33" y2="157.5" gradientUnits="userSpaceOnUse"><stop offset="0" stop-color="#00edcb"/><stop offset="1" stop-color="#009b88"/></linearGradient><linearGradient id="linear-gradient-2" x1="408.54" y1="190.5" x2="408.54" y2="58.5" xlink:href="#linear-gradient"/><linearGradient id="linear-gradient-3" x1="452.33" y1="157.5" x2="518.33" y2="157.5" gradientUnits="userSpaceOnUse"><stop offset="0" stop-color="#015eab"/><stop offset="1" stop-color="#00a1e8"/></linearGradient><linearGradient id="linear-gradient-4" x1="430.12" y1="124.5" x2="430.12" y2="256.5" gradientUnits="userSpaceOnUse"><stop offset="0" stop-color="#00a1e8"/><stop offset="1" stop-color="#015eab"/></linearGradient></defs><path class="cls-1" d="M320.33,124.5h66v44.42a21.64,21.64,0,0,1-21.58,21.58H320.33Z"/><path class="cls-2" d="M445.24,124.5c5.06-5.08,7.09-11.8,7.09-19.13V58.5h-66V168.92a21.64,21.64,0,0,1-21.58,21.58h2.47a28.29,28.29,0,0,0,20.71-8.58Z"/><path class="cls-3" d="M518.33,190.5h-66V146.08a21.64,21.64,0,0,1,21.58-21.58h44.42Z"/><path class="cls-4" d="M393.42,190.5c-5.06,5.06-7.09,11.78-7.09,19.11V256.5h66V146.08a21.64,21.64,0,0,1,21.58-21.58h-2.45a28.3,28.3,0,0,0-20.73,8.58Z"/><path class="cls-5" d="M282.33,316.48a33.32,33.32,0,0,0-11.55-13.28,47.74,47.74,0,0,0-15.07-6.63,82.11,82.11,0,0,0-19.78-2.08H180.6a47.33,47.33,0,0,1,10,11.8c4,6.72,6.07,15,6.07,24.55,0,12.93-3.15,23.85-9.36,32.44q-1.31,1.8-2.75,3.5v15.66l33.24,42V383.55h17.42a65.39,65.39,0,0,0,12.85-1.16,55.82,55.82,0,0,0,10.62-3.2,44.33,44.33,0,0,0,8.93-5,57.36,57.36,0,0,0,7.42-6.4,37.11,37.11,0,0,0,8.45-14,52.89,52.89,0,0,0,2.93-17.6Q286.42,324.8,282.33,316.48Zm-31.24,30.18a17.49,17.49,0,0,1-4.58,6.84,14.45,14.45,0,0,1-4.58,2.89,24.43,24.43,0,0,1-5.64,1.74,50.92,50.92,0,0,1-7.29.62c-2.78.06-5.75.09-8.89.09H217.8V319.2h4.71q7.38,0,11.69.31a27.61,27.61,0,0,1,9,2.35,14.05,14.05,0,0,1,6.4,5.56,17.08,17.08,0,0,1,2.67,9.64A31,31,0,0,1,251.09,346.66Z"/><path class="cls-6" d="M202.77,426.83H162.24L125.35,378.3H113.44v48.53H80.38V294.49h53.24a118.1,118.1,0,0,1,19.2,1.37,40.81,40.81,0,0,1,15.11,5.74,34.67,34.67,0,0,1,11.29,11.51q4.17,7,4.17,17.73,0,15.2-6.84,24.66a48.09,48.09,0,0,1-18.31,15.07ZM149.26,335a18.11,18.11,0,0,0-1.91-8.58,12.62,12.62,0,0,0-6.35-5.56,23,23,0,0,0-6.94-1.68q-3.83-.36-9.51-.36H113.44v35.64H123a70.32,70.32,0,0,0,11.78-.84A17.42,17.42,0,0,0,143,350a15.66,15.66,0,0,0,4.76-6A22.46,22.46,0,0,0,149.26,335Z"/><path class="cls-5" d="M319.71,409.57q-12.42-15-12.42-45.91,0-34,13.89-50.13T363,297.43a82.78,82.78,0,0,1,21.16,2.76v12.69h-4.41a89.85,89.85,0,0,0-9.48-2.2,61.63,61.63,0,0,0-10.21-.74q-18.76,0-28.06,12.24t-9.29,39.64q0,26.31,9.39,38.18t30,11.87a68.59,68.59,0,0,0,18.77-2.95h4.42v12.7q-9.94,2.94-27.23,2.94Q332.12,424.56,319.71,409.57Z"/><path class="cls-5" d="M409.4,298.17h15.27V410.39h50.78v12.7H409.4Z"/><path class="cls-5" d="M495.87,298.17h15.27V423.09H495.87Z"/><path class="cls-5" d="M563.75,298.17l55,106.71Q618,385.74,618,379.3V298.17h14V423.09H613.24l-55-106.53q.74,15.82.74,23.37v83.16H545V298.17Z"/><path class="cls-5" d="M665.86,298.17h15.27V423.09H665.86Z"/><path class="cls-5" d="M720.41,409.57Q708,394.57,708,363.66q0-34,13.89-50.13t41.86-16.1a82.89,82.89,0,0,1,21.16,2.76v12.69h-4.42a89.71,89.71,0,0,0-9.47-2.2,61.85,61.85,0,0,0-10.22-.74q-18.76,0-28,12.24t-9.29,39.64q0,26.31,9.38,38.18t30,11.87a68.58,68.58,0,0,0,18.76-2.95H786v12.7q-9.93,2.94-27.23,2.94Q732.84,424.56,720.41,409.57Z"/><path class="cls-6" d="M63.83,446.84a106.68,106.68,0,0,1,38.83,1c-20.52,3.83-31.88,8-31.76,12.3.43,15.68,153.75,27.35,346.74,26.82h3.72c193,.53,346.31-11.14,346.74-26.82.12-4.3-11.24-8.47-31.76-12.3a106.68,106.68,0,0,1,38.83-1c14.07,2.34,33.91,8.84,33.83,13.59-.25,14.58-189.28,30.18-389.52,29.77C219.26,490.61,30.25,475,30,460.43,29.92,455.68,49.76,449.18,63.83,446.84Z"/><path class="cls-6" d="M260.72,465q-2.42-2.58-2.42-8,0-6,2.63-8.75t8.16-2.77a20.74,20.74,0,0,1,4.61.45v2.24h-.77a21.6,21.6,0,0,0-4.48-.51c-2.58,0-4.47.7-5.65,2.09s-1.78,3.71-1.78,6.93q0,4.51,1.83,6.61c1.21,1.4,3.24,2.09,6.08,2.09a17.77,17.77,0,0,0,2.94-.22v-8.77h2.53V467a30.4,30.4,0,0,1-5.89.51Q263.14,467.55,260.72,465Z"/><path class="cls-6" d="M294.72,453.14c.88,1.05,1.31,2.76,1.31,5.13q0,1.19-.06,1.83h-9.22a5.72,5.72,0,0,0,1.28,4.11,4.9,4.9,0,0,0,3.59,1.23,9.3,9.3,0,0,0,3.39-.7h.77v2.08a15.46,15.46,0,0,1-4.68.67,7,7,0,0,1-5.05-1.73q-1.83-1.72-1.83-5.73,0-4.41,1.62-6.45a5.8,5.8,0,0,1,4.82-2A5,5,0,0,1,294.72,453.14Zm-8,5.07h6.95a5.52,5.52,0,0,0-.71-3.54,3.08,3.08,0,0,0-2.65-1.13C288,453.54,286.84,455.09,286.75,458.21Z"/><path class="cls-6" d="M307.31,467.3a12.73,12.73,0,0,1-1.9-.39v-2.05h.77a18,18,0,0,0,1.82.4,10.23,10.23,0,0,0,1.82.15,3.32,3.32,0,0,0,2.12-.61,1.93,1.93,0,0,0,.76-1.6,2,2,0,0,0-.76-1.73,10.33,10.33,0,0,0-2.37-1.18,18.29,18.29,0,0,1-2.13-.91,3.9,3.9,0,0,1-1.38-1.28,4.46,4.46,0,0,1,.79-5.36,5.6,5.6,0,0,1,3.84-1.19,13.84,13.84,0,0,1,3.68.58v2.05h-.74a10.26,10.26,0,0,0-3.13-.58,3,3,0,0,0-1.89.54,1.84,1.84,0,0,0-.67,1.51,1.81,1.81,0,0,0,.73,1.58,10.4,10.4,0,0,0,2.31,1.11,13.46,13.46,0,0,1,2.14.89,4.11,4.11,0,0,1,1.42,1.31,3.94,3.94,0,0,1,.6,2.28,4.23,4.23,0,0,1-1.44,3.4,6.52,6.52,0,0,1-4.36,1.24A16.52,16.52,0,0,1,307.31,467.3Z"/><path class="cls-6" d="M327,466.58a4,4,0,0,1-.94-3v-9.78h-2.59v-2.05h1.73a1,1,0,0,0,.86-.3,1.88,1.88,0,0,0,.22-1.07v-1.66h2.28v3h4.51v2.05h-4.51v9a3.23,3.23,0,0,0,.48,2,1.89,1.89,0,0,0,1.53.57,5.26,5.26,0,0,0,1.15-.13l.71-.16h.61v2.08a16.39,16.39,0,0,1-3,.29A4.29,4.29,0,0,1,327,466.58Z"/><path class="cls-6" d="M351.81,452.85a5.44,5.44,0,0,1,1.31,4V467.3h-2.21V466a6.89,6.89,0,0,1-2,1.11,7.85,7.85,0,0,1-2.61.43,4.71,4.71,0,0,1-3.36-1.17,4,4,0,0,1-1.25-3.09,4.55,4.55,0,0,1,1.56-3.68,6.84,6.84,0,0,1,4.52-1.31,12.81,12.81,0,0,1,2.92.32v-1a4.71,4.71,0,0,0-.77-3.08,3.5,3.5,0,0,0-2.69-.86,8.94,8.94,0,0,0-1.94.21c-.63.14-1.34.33-2.16.59h-.76v-2a21.15,21.15,0,0,1,5.34-.8A5.67,5.67,0,0,1,351.81,452.85ZM344.29,447a2.06,2.06,0,0,1,1.69-.8,2.49,2.49,0,0,1,.93.17,6.92,6.92,0,0,1,1,.53l.58.31a1.23,1.23,0,0,0,.51.14.63.63,0,0,0,.54-.24,1.56,1.56,0,0,0,.23-.88h1.6a3.47,3.47,0,0,1-.61,2.32,2.09,2.09,0,0,1-1.7.78,2.21,2.21,0,0,1-.91-.17,8.43,8.43,0,0,1-1-.53,2.6,2.6,0,0,1-.45-.24,1.33,1.33,0,0,0-.67-.21.65.65,0,0,0-.55.26,1.66,1.66,0,0,0-.22.89h-1.57A3.52,3.52,0,0,1,344.29,447Zm.59,17.77a2.93,2.93,0,0,0,2.06.69,6,6,0,0,0,1.94-.32,7.85,7.85,0,0,0,1.78-.83v-3.81a15.4,15.4,0,0,0-3.36-.35c-2.12,0-3.17.93-3.17,2.78A2.36,2.36,0,0,0,344.88,464.78Z"/><path class="cls-6" d="M364.86,465.54a8.73,8.73,0,0,1-1.6-5.64c0-2.79.61-4.88,1.81-6.27a6.44,6.44,0,0,1,5.11-2.08,5.76,5.76,0,0,1,4.7,1.94,8.53,8.53,0,0,1,1.6,5.58q0,4.23-1.81,6.32a6.37,6.37,0,0,1-5.1,2.1A5.75,5.75,0,0,1,364.86,465.54Zm9.06-6q0-5.92-4-5.92t-4.07,5.89q0,6,4,5.95C372.56,465.44,373.92,463.47,373.92,459.52Z"/><path class="cls-6" d="M411.33,444.93V467.3h-2.15v-1.06a6,6,0,0,1-1.9.93,7.79,7.79,0,0,1-2.19.32,5.35,5.35,0,0,1-4.37-1.83q-1.52-1.82-1.52-5.63c0-3,.62-5.22,1.85-6.53a7.36,7.36,0,0,1,5.57-1.95c.47,0,1.22.05,2.24.13v-6.75Zm-2.47,8.86a19.75,19.75,0,0,0-2.59-.22,4.2,4.2,0,0,0-3.36,1.34c-.77.9-1.15,2.45-1.15,4.64a7.58,7.58,0,0,0,1,4.5,3.55,3.55,0,0,0,3,1.33,5.77,5.77,0,0,0,1.5-.23,8.13,8.13,0,0,0,1.6-.61Z"/><path class="cls-6" d="M432.19,453.14c.88,1.05,1.31,2.76,1.31,5.13q0,1.19-.06,1.83h-9.22a5.72,5.72,0,0,0,1.28,4.11,4.9,4.9,0,0,0,3.59,1.23,9.3,9.3,0,0,0,3.39-.7h.77v2.08a15.44,15.44,0,0,1-4.67.67,7.07,7.07,0,0,1-5.06-1.73c-1.22-1.15-1.82-3.06-1.82-5.73,0-2.94.53-5.09,1.61-6.45a5.8,5.8,0,0,1,4.82-2A5,5,0,0,1,432.19,453.14Zm-8,5.07h6.95a5.52,5.52,0,0,0-.71-3.54,3.08,3.08,0,0,0-2.65-1.13C425.5,453.54,424.31,455.09,424.22,458.21Z"/><path class="cls-6" d="M458.64,464.94c-1.44-1.73-2.16-4.4-2.16-8,0-3.95.8-6.85,2.41-8.72s4-2.8,7.28-2.8a14.35,14.35,0,0,1,3.68.48v2.21h-.76q-.9-.25-1.65-.39a11.41,11.41,0,0,0-1.78-.12,5.77,5.77,0,0,0-4.88,2.12q-1.61,2.13-1.61,6.9,0,4.58,1.63,6.64c1.09,1.38,2.82,2.06,5.21,2.06a12,12,0,0,0,3.27-.51h.77V467a17.46,17.46,0,0,1-4.74.51Q460.8,467.55,458.64,464.94Z"/><path class="cls-6" d="M480.13,444.93h2.46V467.3h-2.46Z"/><path class="cls-6" d="M493.85,451.74h2.47V467.3h-2.47Zm1.83-1.82H494v-.77l2-3.42h2.43v.7Z"/><path class="cls-6" d="M518.67,452.9a6.26,6.26,0,0,1,1.17,4.19V467.3h-2.47v-9.7a4.46,4.46,0,0,0-.8-3,3.22,3.22,0,0,0-2.56-.91,10.2,10.2,0,0,0-4,.83V467.3h-2.47V451.74h2.31v1a10.36,10.36,0,0,1,2.36-.88,11,11,0,0,1,2.72-.34A4.64,4.64,0,0,1,518.67,452.9Z"/><path class="cls-6" d="M530.75,446.34h2.85v2.88h-2.85Zm.19,5.4h2.47V467.3h-2.47Z"/><path class="cls-6" d="M545.49,465.7q-1.72-1.8-1.72-5.83,0-4.29,1.68-6.3a6.3,6.3,0,0,1,5.14-2,9.65,9.65,0,0,1,1.81.18,10.44,10.44,0,0,1,1.64.43v2h-.76q-.9-.29-1.62-.45a7,7,0,0,0-1.55-.16,3.23,3.23,0,0,0-2.77,1.39,7.77,7.77,0,0,0-1,4.47c0,2.24.37,3.79,1.11,4.67a4,4,0,0,0,3.21,1.31,8.36,8.36,0,0,0,2.76-.48h.8V467a17.32,17.32,0,0,1-3.88.45A6.38,6.38,0,0,1,545.49,465.7Z"/><path class="cls-6" d="M573.28,452.85a5.44,5.44,0,0,1,1.31,4V467.3h-2.21V466a6.89,6.89,0,0,1-2,1.11,7.85,7.85,0,0,1-2.61.43,4.71,4.71,0,0,1-3.36-1.17,4,4,0,0,1-1.25-3.09,4.55,4.55,0,0,1,1.56-3.68,6.84,6.84,0,0,1,4.52-1.31,12.66,12.66,0,0,1,2.91.32v-1a4.71,4.71,0,0,0-.76-3.08,3.5,3.5,0,0,0-2.69-.86,8.94,8.94,0,0,0-1.94.21c-.63.14-1.35.33-2.16.59h-.77v-2a21.29,21.29,0,0,1,5.35-.8A5.67,5.67,0,0,1,573.28,452.85Zm-6.93,11.93a2.93,2.93,0,0,0,2.06.69,6,6,0,0,0,1.94-.32,7.58,7.58,0,0,0,1.77-.83v-3.81a15.24,15.24,0,0,0-3.35-.35c-2.12,0-3.17.93-3.17,2.78A2.36,2.36,0,0,0,566.35,464.78Z"/><path class="cls-6" d="M586.57,467.3a12.73,12.73,0,0,1-1.9-.39v-2.05h.77a18,18,0,0,0,1.82.4,10.23,10.23,0,0,0,1.82.15,3.32,3.32,0,0,0,2.12-.61,1.93,1.93,0,0,0,.76-1.6,2,2,0,0,0-.76-1.73,10.33,10.33,0,0,0-2.37-1.18,18.29,18.29,0,0,1-2.13-.91,3.9,3.9,0,0,1-1.38-1.28,4.46,4.46,0,0,1,.79-5.36,5.62,5.62,0,0,1,3.84-1.19,13.78,13.78,0,0,1,3.68.58v2.05h-.74a10.26,10.26,0,0,0-3.13-.58,3,3,0,0,0-1.89.54,1.84,1.84,0,0,0-.67,1.51,1.81,1.81,0,0,0,.73,1.58,10.4,10.4,0,0,0,2.31,1.11,13.46,13.46,0,0,1,2.14.89,4,4,0,0,1,1.42,1.31,3.94,3.94,0,0,1,.6,2.28,4.23,4.23,0,0,1-1.44,3.4,6.54,6.54,0,0,1-4.36,1.24A16.52,16.52,0,0,1,586.57,467.3Z"/></svg>