<svg id="Camada_1" data-name="Camada 1" xmlns="http://www.w3.org/2000/svg" xmlns:xlink="http://www.w3.org/1999/xlink" viewBox="0 0 240 240"><defs><style>.cls-1,.cls-2,.cls-3,.cls-4{fill-rule:evenodd;}.cls-1{fill:url(#linear-gradient);}.cls-2{fill:url(#linear-gradient-2);}.cls-3{fill:url(#linear-gradient-3);}.cls-4{fill:url(#linear-gradient-4);}</style><linearGradient id="linear-gradient" x1="20.57" y1="120.39" x2="86.57" y2="120.39" gradientUnits="userSpaceOnUse"><stop offset="0" stop-color="#00edcb"/><stop offset="1" stop-color="#009b88"/></linearGradient><linearGradient id="linear-gradient-2" x1="108.78" y1="153.39" x2="108.78" y2="21.39" xlink:href="#linear-gradient"/><linearGradient id="linear-gradient-3" x1="152.57" y1="120.39" x2="218.57" y2="120.39" gradientUnits="userSpaceOnUse"><stop offset="0" stop-color="#015eab"/><stop offset="1" stop-color="#00a1e8"/></linearGradient><linearGradient id="linear-gradient-4" x1="130.36" y1="87.39" x2="130.36" y2="219.39" gradientUnits="userSpaceOnUse"><stop offset="0" stop-color="#00a1e8"/><stop offset="1" stop-color="#015eab"/></linearGradient></defs><path class="cls-1" d="M20.57,87.39h66v44.42A21.64,21.64,0,0,1,65,153.39H20.57Z"/><path class="cls-2" d="M145.48,87.39c5.06-5.07,7.09-11.8,7.09-19.12V21.39h-66V131.81A21.64,21.64,0,0,1,65,153.39h2.47a28.29,28.29,0,0,0,20.71-8.58Z"/><path class="cls-3" d="M218.57,153.39h-66V109a21.64,21.64,0,0,1,21.58-21.59h44.42Z"/><path class="cls-4" d="M93.66,153.39c-5.06,5.06-7.09,11.79-7.09,19.11v46.89h66V109a21.64,21.64,0,0,1,21.58-21.59H171.7A28.3,28.3,0,0,0,151,96Z"/></svg>