<svg version="1.1" id="Outline_x5F_Icons"
	xmlns="http://www.w3.org/2000/svg"
	xmlns:xlink="http://www.w3.org/1999/xlink" x="0px" y="0px" viewBox="0 0 16 16">
	<g id="Outline_Icons">
		<path fill-rule="evenodd" clip-rule="evenodd" d="M3.71429 1C3.38776 1 3.07735 1.12624 2.85064 1.34665C2.62441 1.5666 2.5 1.86186 2.5 2.16667V13.8333C2.5 14.1381 2.62441 14.4334 2.85064 14.6533C3.07735 14.8738 3.38776 15 3.71429 15H12.2857C12.6122 15 12.9226 14.8738 13.1494 14.6533C13.3756 14.4334 13.5 14.1381 13.5 13.8333V5.00001H10.8C10.4552 5.00001 10.1246 4.86305 9.88076 4.61925C9.63696 4.37546 9.5 4.0448 9.5 3.70001V1H3.71429ZM10.5 1.70712L12.7929 4.00001H10.8C10.7204 4.00001 10.6441 3.96841 10.5879 3.91215C10.5316 3.85589 10.5 3.77958 10.5 3.70001V1.70712ZM14.5 13.8333V4.50397V4.5C14.5 4.36739 14.4473 4.24021 14.3536 4.14645L10.3536 0.146461V0.146447C10.3396 0.132531 10.325 0.11952 10.3097 0.107453C10.272 0.0777389 10.2308 0.0539645 10.1873 0.0364099C10.1283 0.0125879 10.0648 0 10 0H9.99989H3.71429C3.13149 0 2.56983 0.22495 2.15356 0.629658C1.73681 1.03483 1.5 1.58741 1.5 2.16667V13.8333C1.5 14.4126 1.73681 14.9652 2.15356 15.3703C2.56983 15.775 3.13149 16 3.71429 16H12.2857C12.8685 16 13.4302 15.775 13.8464 15.3703C14.2632 14.9652 14.5 14.4126 14.5 13.8333ZM11.1836 11.7142C11.4597 11.7142 11.6836 11.4904 11.6836 11.2142C11.6836 10.9381 11.4597 10.7142 11.1836 10.7142L6.89788 10.7142C6.62174 10.7142 6.39788 10.9381 6.39788 11.2142C6.39788 11.4904 6.62174 11.7142 6.89788 11.7142L11.1836 11.7142ZM4.19385 13.3572C4.19385 13.081 4.41771 12.8572 4.69385 12.8572L9.19385 12.8572C9.46999 12.8572 9.69385 13.081 9.69385 13.3572C9.69385 13.6333 9.46999 13.8572 9.19385 13.8572L4.69385 13.8572C4.41771 13.8572 4.19385 13.6333 4.19385 13.3572ZM5.06128 11.7142C5.33742 11.7142 5.56128 11.4904 5.56128 11.2142C5.56128 10.9381 5.33742 10.7142 5.06128 10.7142H4.69393C4.41779 10.7142 4.19393 10.9381 4.19393 11.2142C4.19393 11.4904 4.41779 11.7142 4.69393 11.7142H5.06128ZM10.3164 13.3572C10.3164 13.081 10.5403 12.8572 10.8164 12.8572H11.1838C11.4599 12.8572 11.6838 13.081 11.6838 13.3572C11.6838 13.6333 11.4599 13.8572 11.1838 13.8572H10.8164C10.5403 13.8572 10.3164 13.6333 10.3164 13.3572ZM8.06116 9.21425C7.78502 9.21425 7.56116 8.99039 7.56116 8.71425L7.56116 7.42849L6.22437 7.42849C5.94822 7.42849 5.72437 7.20463 5.72437 6.92849C5.72437 6.65234 5.94822 6.42849 6.22437 6.42849L7.56116 6.42849L7.56116 5.14282C7.56116 4.86668 7.78502 4.64282 8.06116 4.64282C8.33731 4.64282 8.56116 4.86668 8.56116 5.14282V6.42849L9.89783 6.42848C10.174 6.42848 10.3978 6.65234 10.3978 6.92848C10.3978 7.20463 10.174 7.42848 9.89783 7.42848L8.56116 7.42849L8.56116 8.71425C8.56116 8.99039 8.33731 9.21425 8.06116 9.21425Z"/>
	</g>
</svg>
