<svg version="1.1" id="Layer_1"
	xmlns="http://www.w3.org/2000/svg"
	xmlns:xlink="http://www.w3.org/1999/xlink" x="0px" y="0px" viewBox="0 0 16 16" style="enable-background:new 0 0 16 16;" xml:space="preserve">
	<g id="Outline_Icons">
		<path d="M4 3.5C4 3.22386 3.77614 3 3.5 3C3.22386 3 3 3.22386 3 3.5H4ZM10 4C10 3.72386 9.77614 3.5 9.5 3.5C9.22386 3.5 9 3.72386 9 4H10ZM3 3.5V11H4V3.5H3ZM3 11C3 11.6741 3.25007 12.9003 3.98834 13.9713C4.7449 15.0688 6.01588 16 8 16V15C6.38412 15 5.4051 14.2646 4.81166 13.4037C4.19993 12.5163 4 11.4926 4 11H3ZM8 16C9.98412 16 11.2551 15.0688 12.0117 13.9713C12.7499 12.9003 13 11.6741 13 11H12C12 11.4926 11.8001 12.5163 11.1883 13.4037C10.5949 14.2646 9.61588 15 8 15V16ZM13 11V3H12V11H13ZM13 3C13 1.72386 11.7761 0 9.5 0V1C11.2239 1 12 2.27614 12 3H13ZM9.5 0C7.22386 0 6 1.72386 6 3H7C7 2.27614 7.77614 1 9.5 1V0ZM6 3V10.5H7V3H6ZM6 10.5C6 10.7625 6.10271 11.2357 6.38558 11.6547C6.68666 12.1008 7.20579 12.5 8 12.5V11.5C7.59421 11.5 7.36334 11.3159 7.21442 11.0953C7.04729 10.8477 7 10.5708 7 10.5H6ZM8 12.5C8.79421 12.5 9.31334 12.1008 9.61442 11.6547C9.89729 11.2357 10 10.7625 10 10.5H9C9 10.5708 8.95271 10.8477 8.78558 11.0953C8.63666 11.3159 8.40579 11.5 8 11.5V12.5ZM10 10.5V4H9V10.5H10Z"/>
	</g>
</svg>
