<svg version="1.1" id="Layer_1" xmlns="http://www.w3.org/2000/svg" xmlns:xlink="http://www.w3.org/1999/xlink" x="0px" y="0px"
	 viewBox="0 0 16 16" style="enable-background:new 0 0 16 16;" xml:space="preserve">
	<g id="Outline_Icons">
		<path d="M1 8C1 4.13401 4.13401 1 8 1C11.866 1 15 4.13401 15 8C15 11.866 11.866 15 8 15C4.13401 15 1 11.866 1 8ZM8 0C3.58172 0 0 3.58172 0 8C0 12.4183 3.58172 16 8 16C12.4183 16 16 12.4183 16 8C16 3.58172 12.4183 0 8 0ZM8.5 4.25C8.5 3.97386 8.27614 3.75 8 3.75C7.72386 3.75 7.5 3.97386 7.5 4.25L7.5 8.375C7.5 8.50761 7.55268 8.63478 7.64645 8.72855L9.89645 10.9786C10.0917 11.1738 10.4083 11.1738 10.6036 10.9786C10.7988 10.7833 10.7988 10.4667 10.6036 10.2714L8.5 8.16789L8.5 4.25Z"/>
	</g>
</svg>
