<svg version="1.1" id="Layer_1" xmlns="http://www.w3.org/2000/svg" xmlns:xlink="http://www.w3.org/1999/xlink" x="0px" y="0px"
	 viewBox="0 0 16 16" style="enable-background:new 0 0 16 16;" xml:space="preserve">
<g id="Outline_Icons">
	<path fill-rule="evenodd" clip-rule="evenodd" d="M0 7.99977C0 3.58162 3.58162 0 7.99977 0C12.4179 0 15.9995 3.58162 15.9995 7.99977C15.9995 12.4179 12.4179 15.9995 7.99977 15.9995C3.58162 15.9995 0 12.4179 0 7.99977ZM7.99977 0.95C4.10629 0.95 0.95 4.10629 0.95 7.99977C0.95 11.8932 4.1063 15.0495 7.99977 15.0495C11.8932 15.0495 15.0495 11.8932 15.0495 7.99977C15.0495 4.1063 11.8932 0.95 7.99977 0.95ZM10.8029 5.19823C10.9982 5.39349 10.9982 5.71008 10.8029 5.90534L8.70854 7.99973L10.8029 10.0941C10.9982 10.2894 10.9982 10.606 10.8029 10.8012C10.6077 10.9965 10.2911 10.9965 10.0958 10.8012L8.00144 8.70683L5.90705 10.8012C5.71179 10.9965 5.3952 10.9965 5.19994 10.8012C5.00468 10.606 5.00468 10.2894 5.19994 10.0941L7.29433 7.99973L5.19994 5.90534C5.00468 5.71008 5.00468 5.39349 5.19994 5.19823C5.3952 5.00297 5.71179 5.00297 5.90705 5.19823L8.00144 7.29262L10.0958 5.19823C10.2911 5.00297 10.6077 5.00297 10.8029 5.19823Z" />
</g>
</svg>
