<svg version="1.1" id="Layer_1" xmlns="http://www.w3.org/2000/svg" xmlns:xlink="http://www.w3.org/1999/xlink" x="0px" y="0px"
	 viewBox="0 0 16 16" style="enable-background:new 0 0 16 16;" xml:space="preserve">
	<g id="Outline_Icons">
		<path fill-rule="evenodd" clip-rule="evenodd" d="M4.5 0C4.77614 0 5 0.223858 5 0.5V1.5H11V0.5C11 0.223858 11.2239 0 11.5 0C11.7761 0 12 0.223858 12 0.5V1.5H14C15.1046 1.5 16 2.39543 16 3.5V14C16 15.1046 15.1046 16 14 16H2C0.895431 16 0 15.1046 0 14V3.5C0 2.39543 0.895431 1.5 2 1.5H4V0.5C4 0.223858 4.22386 0 4.5 0ZM11 2.5V3.1C11 3.37614 11.2239 3.6 11.5 3.6C11.7761 3.6 12 3.37614 12 3.1V2.5H14C14.5523 2.5 15 2.94772 15 3.5V4.71003C14.9676 4.70342 14.934 4.69995 14.8996 4.69995H1.09961C1.0655 4.69995 1.03219 4.70337 1 4.70987V3.5C1 2.94772 1.44772 2.5 2 2.5H4V3.1C4 3.37614 4.22386 3.6 4.5 3.6C4.77614 3.6 5 3.37614 5 3.1V2.5H11ZM1 14V5.69003C1.03219 5.69654 1.0655 5.69995 1.09961 5.69995H14.8996C14.934 5.69995 14.9676 5.69648 15 5.68987V14C15 14.5523 14.5523 15 14 15H2C1.44772 15 1 14.5523 1 14ZM4.5 9.5C4.22386 9.5 4 9.72386 4 10C4 10.2761 4.22386 10.5 4.5 10.5L11.5 10.5C11.7761 10.5 12 10.2761 12 10C12 9.72386 11.7761 9.5 11.5 9.5L4.5 9.5Z"/>
	</g>
</svg>
