<svg version="1.1" id="Layer_1" xmlns="http://www.w3.org/2000/svg" xmlns:xlink="http://www.w3.org/1999/xlink" x="0px" y="0px"
	 viewBox="0 0 16 16" style="enable-background:new 0 0 16 16;" xml:space="preserve">
	<g id="Outline_Icons">
	    <path d="M8.70957 8.00005L13.8496 2.85005C13.8974 2.80516 13.9355 2.75095 13.9616 2.69075C13.9876 2.63055 14.0011 2.56565 14.0011 2.50005C14.0011 2.43446 13.9876 2.36956 13.9616 2.30936C13.9355 2.24916 13.8974 2.19494 13.8496 2.15005C13.8047 2.10222 13.7505 2.0641 13.6903 2.03804C13.6301 2.01198 13.5652 1.99854 13.4996 1.99854C13.434 1.99854 13.3691 2.01198 13.3089 2.03804C13.2487 2.0641 13.1945 2.10222 13.1496 2.15005L7.99957 7.29005L2.84957 2.15005C2.80468 2.10222 2.75046 2.0641 2.69026 2.03804C2.63006 2.01198 2.56516 1.99854 2.49957 1.99854C2.43397 1.99854 2.36907 2.01198 2.30887 2.03804C2.24867 2.0641 2.19446 2.10222 2.14957 2.15005C2.10173 2.19494 2.06361 2.24916 2.03755 2.30936C2.01149 2.36956 1.99805 2.43446 1.99805 2.50005C1.99805 2.56565 2.01149 2.63055 2.03755 2.69075C2.06361 2.75095 2.10173 2.80516 2.14957 2.85005L7.28957 8.00005L2.14957 13.1501C2.10173 13.1949 2.06361 13.2492 2.03755 13.3094C2.01149 13.3696 1.99805 13.4345 1.99805 13.5001C1.99805 13.5656 2.01149 13.6306 2.03755 13.6907C2.06361 13.7509 2.10173 13.8052 2.14957 13.8501C2.19421 13.8981 2.24842 13.9363 2.30869 13.9621C2.36897 13.9879 2.43399 14.0009 2.49957 14.0001C2.56514 14.0009 2.63016 13.9879 2.69044 13.9621C2.75072 13.9363 2.80492 13.8981 2.84957 13.8501L7.99957 8.71005L13.1496 13.8501C13.1945 13.8979 13.2487 13.936 13.3089 13.9621C13.3691 13.9881 13.434 14.0016 13.4996 14.0016C13.5652 14.0016 13.6301 13.9881 13.6903 13.9621C13.7505 13.936 13.8047 13.8979 13.8496 13.8501C13.8974 13.8052 13.9355 13.7509 13.9616 13.6907C13.9876 13.6306 14.0011 13.5656 14.0011 13.5001C14.0011 13.4345 13.9876 13.3696 13.9616 13.3094C13.9355 13.2492 13.8974 13.1949 13.8496 13.1501L8.70957 8.00005Z"/>
	</g>
</svg>

