<svg version="1.1" id="Layer_1" xmlns="http://www.w3.org/2000/svg" xmlns:xlink="http://www.w3.org/1999/xlink" x="0px" y="0px"
	 viewBox="0 0 16 16" style="enable-background:new 0 0 16 16;" xml:space="preserve">
<g id="Outline_Icons">
	<path class="st0" d="M11.2,9.2L11.2,9.2c0.2-0.4,0.4-0.7,0.5-1.2c0.3,0,0.6-0.2,0.8-0.4C12.9,7.3,13,6.9,13,6.5
		c0-0.3-0.1-0.6-0.3-0.9c-0.1-0.1-0.3-0.3-0.4-0.4c0-0.1,0-0.1,0-0.2c0-0.2,0-0.4,0-0.5c0-0.7-0.1-1.3-0.4-1.9c-0.2-0.5-0.6-1-1-1.4
		c0,0,0,0,0-0.1c0-0.2,0.1-0.5,0.1-0.7c0,0,0,0,0,0v0c0,0,0,0,0,0c0,0,0,0,0,0l0-0.5h-0.5H8.3H8C7.4,0,6.8,0.1,6.3,0.4
		c-0.5,0.2-1,0.6-1.4,1C4.5,1.8,4.2,2.3,3.9,2.8C3.7,3.4,3.6,3.9,3.6,4.5c0,0.2,0,0.5,0,0.7C3.5,5.3,3.4,5.4,3.3,5.6
		C3.1,5.9,3,6.2,3,6.5c0,0.4,0.2,0.8,0.4,1.1C3.7,7.8,3.9,7.9,4.2,8c0.2,0.5,0.4,0.9,0.6,1.2C2.6,9.5,0,10,0,13v2.5
		C0,15.8,0.2,16,0.5,16h15c0.3,0,0.5-0.2,0.5-0.5V13C16,9.9,13.6,9.6,11.2,9.2z M4.1,6.9C4.1,6.8,4,6.6,4,6.5c0-0.1,0-0.2,0.1-0.3
		C4.2,6.1,4.2,6,4.3,6l0.4-0.1L4.7,5.4C4.6,5.2,4.6,4.8,4.6,4.5c0-0.5,0.1-0.9,0.2-1.3C5,2.8,5.3,2.4,5.6,2c0.3-0.3,0.7-0.6,1.1-0.8
		C7.1,1.1,7.6,1,8,1h0.3H10c0,0,0,0.1,0,0.1c0,0.1,0,0.1-0.1,0.2C9.8,1.6,9.7,1.8,9.5,2C9.3,2.2,9.1,2.4,8.8,2.5
		C8.5,2.6,8.3,2.7,8,2.7c-0.3,0-0.5,0.2-0.5,0.5c0,0.3,0.2,0.5,0.5,0.5c0,0,0,0,0,0c0.4,0,0.8-0.1,1.2-0.3c0.4-0.2,0.7-0.4,1-0.7
		c0.1-0.1,0.2-0.3,0.3-0.4C10.7,2.5,10.9,2.8,11,3c0.2,0.5,0.3,1,0.3,1.5c0,0.1,0,0.3,0,0.4c0,0.2,0,0.4,0,0.6v0.4L11.7,6
		c0.1,0,0.2,0.1,0.3,0.2C12,6.3,12,6.4,12,6.5c0,0.1-0.1,0.3-0.1,0.4C11.8,6.9,11.7,7,11.5,7H11l-0.1,0.3C10.4,9.1,9.3,10,8,10
		c-1.3,0-2.4-0.9-2.9-2.7L5,7H4.5C4.4,7,4.2,6.9,4.1,6.9z M4.6,12.7c0.1-0.1,0.1-0.1,0.2-0.2c0.1,0,0.1,0,0.2,0c0,0,0.1,0,0.1,0
		c0.1,0,0.2,0.1,0.3,0.1c0.1,0.1,0.1,0.2,0.1,0.3c0,0.1,0,0.2,0,0.3s-0.1,0.2-0.2,0.2c-0.2,0.1-0.5,0.1-0.6-0.1
		c-0.1-0.1-0.1-0.2-0.1-0.4C4.5,12.9,4.5,12.8,4.6,12.7z M15,15H1v-2c0-1.9,1.3-2.4,3.5-2.7v1.3c0,0,0,0-0.1,0
		c-0.3,0.1-0.5,0.3-0.7,0.6c-0.2,0.2-0.3,0.5-0.3,0.8c0,0.4,0.2,0.8,0.4,1.1c0.3,0.3,0.7,0.4,1.1,0.4c0.3,0,0.6-0.1,0.8-0.3
		c0.2-0.2,0.4-0.4,0.6-0.7c0.1-0.3,0.1-0.6,0.1-0.9c-0.1-0.3-0.2-0.6-0.4-0.8c-0.2-0.2-0.4-0.3-0.6-0.3v-1.5l0.1,0
		C6.3,10.7,7.1,11,8,11c0.9,0,1.7-0.3,2.4-1l0.1,0v1.1c-0.6,0.1-1.3,0.3-1.3,1.2l0,0.9c0,0.2,0.2,0.5,0.4,0.6
		c0.2,0.2,0.4,0.2,0.6,0.3c0,0,0,0,0,0c0.3,0,0.4-0.2,0.5-0.5c0-0.3-0.2-0.5-0.5-0.5v-0.8c0-0.1,0-0.1,0-0.1c0,0,0.1-0.1,0.8-0.1
		c0.7,0,0.8,0.1,0.8,0.1c0,0,0,0,0,0.1v0.7c0,0,0,0-0.1,0c-0.3,0-0.5,0.3-0.5,0.5c0,0.3,0.2,0.5,0.5,0.5c0,0,0,0,0,0
		c0.2,0,0.5-0.1,0.6-0.3c0.2-0.2,0.3-0.4,0.4-0.7v-0.8c0-0.9-0.7-1.2-1.3-1.2v-0.9C13.7,10.6,15,11,15,13V15z"/>
</g>
</svg>
