<svg width="16" height="16" viewBox="0 0 16 16" fill="none" xmlns="http://www.w3.org/2000/svg">
	<g id="Outline_Icons">
		<path d="M15.9138 3.78056C16.0688 3.55197 16.009 3.24107 15.7804 3.08615C15.5518 2.93123 15.2409 2.99095 15.086 3.21954L9.10539 12.0441L7.05811 10.0689C7.05682 10.0677 7.05552 10.0664 7.05423 10.0652L11.3135 3.78056C11.4684 3.55197 11.4087 3.24107 11.1801 3.08615C10.9515 2.93123 10.6406 2.99095 10.4857 3.21954L4.48942 12.0672L0.829698 8.85739C0.622092 8.67531 0.306186 8.696 0.124103 8.9036C-0.0579807 9.11121 -0.0372905 9.42712 0.170316 9.6092L4.25586 13.1925C4.36369 13.287 4.50693 13.3308 4.64918 13.3125C4.79143 13.2943 4.919 13.2158 4.99946 13.0971L6.48483 10.9054L8.83874 13.1764C8.94493 13.2789 9.09096 13.3292 9.23773 13.3139C9.3845 13.2986 9.51701 13.2192 9.5998 13.0971L15.9138 3.78056Z"/>
	</g>
</svg>
