<svg version="1.1" id="Layer_1" xmlns="http://www.w3.org/2000/svg" xmlns:xlink="http://www.w3.org/1999/xlink" x="0px" y="0px"
	 viewBox="0 0 16 16" style="enable-background:new 0 0 16 16;" xml:space="preserve">
	<g id="Outline_Icons">
		<path fill-rule="evenodd" clip-rule="evenodd" d="M1 2.3C1 1.024 2.078 0 3.421 0h4.947c.686 0 1.217.267 1.685.6.02.014.038.03.056.046l4.21 4c.404.384.681.908.681 1.554v7.5c0 1.276-1.078 2.3-2.421 2.3H3.105C1.972 16 1 15.076 1 14V2.3ZM3.421 1c-.762 0-1.368.576-1.368 1.3V14c0 .524.5 1 1.052 1h9.475c.762 0 1.368-.576 1.368-1.3V6.2a1.1 1.1 0 0 0-.004-.1h-3.68c-1.027 0-1.79-.724-1.79-1.7V1.004A1.46 1.46 0 0 0 8.369 1H3.421Zm6.105.507V4.4c0 .424.291.7.737.7h3.045L9.526 1.507ZM7.947 8a.514.514 0 0 0-.526.5c0 .276.236.5.526.5h4.21c.291 0 .527-.224.527-.5s-.236-.5-.526-.5h-4.21Zm0 4a.514.514 0 0 0-.526.5c0 .276.236.5.526.5h4.21c.291 0 .527-.224.527-.5s-.236-.5-.526-.5h-4.21ZM6.115 6.573c.249.143.328.45.177.686l-1.278 2a.544.544 0 0 1-.818.098l-.827-.769a.483.483 0 0 1-.008-.707.546.546 0 0 1 .744-.008l.353.329.934-1.461a.542.542 0 0 1 .723-.168Zm.177 4.686a.486.486 0 0 0-.177-.686.542.542 0 0 0-.723.168l-.934 1.461-.353-.329a.546.546 0 0 0-.744.008.483.483 0 0 0 .008.707l.827.77a.544.544 0 0 0 .818-.099l1.278-2Z"/>
	</g>
</svg>
