<svg width="40" height="40" viewBox="0 0 40 40" xmlns="http://www.w3.org/2000/svg">
	<g id="Outline_Icons">
		<path d="M8 0C7.23692 0 6.59995 0.451593 6.3812 1.1H5C4.72386 1.1 4.5 1.32386 4.5 1.6V3.6C4.5 3.87614 4.72386 4.1 5 4.1H11C11.2761 4.1 11.5 3.87614 11.5 3.6V1.6C11.5 1.32386 11.2761 1.1 11 1.1H9.6188C9.40005 0.451593 8.76308 0 8 0ZM7.3 1.6C7.3 1.30427 7.54715 1 8 1C8.45285 1 8.7 1.30427 8.7 1.6C8.7 1.87614 8.92386 2.1 9.2 2.1H10.5V3.1H5.5V2.1H6.8C7.07614 2.1 7.3 1.87614 7.3 1.6ZM12.5866 2.23646C12.3305 2.13321 12.0391 2.25713 11.9359 2.51324C11.8326 2.76935 11.9565 3.06068 12.2127 3.16393C12.5448 3.29783 12.7996 3.6317 12.7996 4.01043V14.0892C12.7996 14.623 12.4198 15.0002 11.8996 15.0002H10.0996C9.82347 15.0002 9.59961 15.2241 9.59961 15.5002C9.59961 15.7763 9.82347 16.0002 10.0996 16.0002H11.8996C12.9794 16.0002 13.7996 15.1679 13.7996 14.0892V4.01043C13.7996 3.17971 13.2544 2.50571 12.5866 2.23646ZM4.07454 2.54208C4.16186 2.80405 4.02028 3.08721 3.75831 3.17454C3.39022 3.29723 3.2002 3.58465 3.2002 4.0002V6.9002C3.2002 7.17634 2.97634 7.4002 2.7002 7.4002C2.42405 7.4002 2.2002 7.17634 2.2002 6.9002V4.0002C2.2002 3.21575 2.61017 2.50316 3.44208 2.22585C3.70405 2.13853 3.98721 2.28011 4.07454 2.54208ZM5 5.2002C4.72386 5.2002 4.5 5.42405 4.5 5.7002C4.5 5.97634 4.72386 6.2002 5 6.2002H11C11.2761 6.2002 11.5 5.97634 11.5 5.7002C11.5 5.42405 11.2761 5.2002 11 5.2002H5ZM9.7998 8C9.7998 7.72386 10.0237 7.5 10.2998 7.5H10.9998C11.2759 7.5 11.4998 7.72386 11.4998 8C11.4998 8.27614 11.2759 8.5 10.9998 8.5H10.2998C10.0237 8.5 9.7998 8.27614 9.7998 8ZM6.7002 9.6001C6.7002 9.32396 6.47634 9.1001 6.2002 9.1001C5.92405 9.1001 5.7002 9.32396 5.7002 9.6001V11H4.2998C4.02366 11 3.7998 11.2239 3.7998 11.5C3.7998 11.7761 4.02366 12 4.2998 12H5.7002V13.4001C5.7002 13.6762 5.92405 13.9001 6.2002 13.9001C6.47634 13.9001 6.7002 13.6762 6.7002 13.4001V12H8.1998C8.47595 12 8.6998 11.7761 8.6998 11.5C8.6998 11.2239 8.47595 11 8.1998 11H6.7002V9.6001ZM3 11.4998C3 9.73249 4.43269 8.2998 6.2 8.2998C7.96731 8.2998 9.4 9.73249 9.4 11.4998C9.4 13.2671 7.96731 14.6998 6.2 14.6998C4.43269 14.6998 3 13.2671 3 11.4998ZM6.2 7.2998C3.8804 7.2998 2 9.18021 2 11.4998C2 13.8194 3.8804 15.6998 6.2 15.6998C8.5196 15.6998 10.4 13.8194 10.4 11.4998C10.4 9.18021 8.5196 7.2998 6.2 7.2998Z"/>
	</g>
</svg>
