<svg version="1.1" id="Outline_x5F_Icons" xmlns="http://www.w3.org/2000/svg" xmlns:xlink="http://www.w3.org/1999/xlink" x="0px"
	 y="0px" viewBox="0 0 16 16">
	<g id="Outline_Icons">
		<path fill-rule="evenodd" clip-rule="evenodd" d="M12.5 5H1.5C1.22386 5 1 5.22386 1 5.5V10.5C1 10.7761 1.22386 11 1.5 11H3V9.5V9H3.5H12.5H13V9.5V11H14.5C14.7761 11 15 10.7761 15 10.5V5.5C15 5.22386 14.7761 5 14.5 5H13H12.5ZM13 4V1.5C13 0.671573 12.3284 0 11.5 0H4.5C3.67157 0 3 0.671572 3 1.5L3 4H1.5C0.671573 4 0 4.67157 0 5.5V10.5C0 11.3284 0.671572 12 1.5 12H3V14.5C3 15.3284 3.67157 16 4.5 16H11.5C12.3284 16 13 15.3284 13 14.5V12H14.5C15.3284 12 16 11.3284 16 10.5V5.5C16 4.67157 15.3284 4 14.5 4H13ZM12 4V1.5C12 1.22386 11.7761 1 11.5 1L4.5 1C4.22386 1 4 1.22386 4 1.5L4 4L12 4ZM13 8C13.5523 8 14 7.55228 14 7C14 6.44771 13.5523 6 13 6C12.4477 6 12 6.44771 12 7C12 7.55228 12.4477 8 13 8ZM4 10V14.5C4 14.7761 4.22386 15 4.5 15H11.5C11.7761 15 12 14.7761 12 14.5V10H4ZM10 12H5V11H10V12ZM5 14H10V13H5V14Z"/>
	</g>
</svg>
