<svg version="1.1" id="Outline_x5F_Icons" xmlns="http://www.w3.org/2000/svg" xmlns:xlink="http://www.w3.org/1999/xlink" x="0px"
	 y="0px" viewBox="0 0 16 16" style="enable-background:new 0 0 16 16;" xml:space="preserve">
<g id="Outline_Icons">
	<path class="st0" d="M8,11H6.4V9.4c0-0.3-0.2-0.5-0.5-0.5S5.4,9.1,5.4,9.4V11H3.8c-0.3,0-0.5,0.2-0.5,0.5S3.5,12,3.8,12h1.6v1.6
		c0,0.3,0.2,0.5,0.5,0.5s0.5-0.2,0.5-0.5V12H8c0.3,0,0.5-0.2,0.5-0.5S8.3,11,8,11z"/>
	<path class="st0" d="M5.9,7c-2.5,0-4.5,2-4.5,4.5s2,4.5,4.5,4.5s4.5-2,4.5-4.5S8.3,7,5.9,7z M5.9,15c-1.9,0-3.5-1.6-3.5-3.5
		S4,8,5.9,8s3.5,1.6,3.5,3.5S7.8,15,5.9,15z"/>
	<path class="st0" d="M14.1,4.6l-4-4c0,0,0,0-0.1,0C9.6,0.3,9.1,0,8.3,0H3.7C2.4,0,1.4,1,1.4,2.3v4c0,0.3,0.2,0.5,0.5,0.5
		s0.5-0.2,0.5-0.5v-4C2.4,1.6,3,1,3.7,1h4.7h0.1v3.4c0,1,0.7,1.7,1.7,1.7h3.5v0.1v7.5c0,0.7-0.6,1.3-1.3,1.3h-0.9
		c-0.3,0-0.5,0.2-0.5,0.5s0.2,0.5,0.5,0.5h0.9c1.3,0,2.3-1,2.3-2.3V6.2C14.6,5.6,14.3,5,14.1,4.6z M10.1,5.1c-0.4,0-0.7-0.3-0.7-0.7
		V1.5l3.6,3.6H10.1z"/>
</g>
</svg>
