<svg version="1.1" id="Layer_1" xmlns="http://www.w3.org/2000/svg" xmlns:xlink="http://www.w3.org/1999/xlink" x="0px" y="0px"
	 viewBox="0 0 14.1 14.1" style="enable-background:new 0 0 14.1 14.1;" xml:space="preserve">
	<g id="Outline_Icons">
		<path  d="M7.50004 1.5C10.108 1.5 12.3772 2.95641 13.4224 5.09533L10.9664 4.2285C10.706 4.1366 10.4204 4.27319 10.3285 4.53359C10.2366 4.79399 10.3732 5.07959 10.6336 5.17149L14.0336 6.3715C14.2892 6.46172 14.5702 6.33179 14.667 6.07857L15.967 2.67857C16.0656 2.42064 15.9365 2.13159 15.6786 2.03297C15.4206 1.93435 15.1316 2.0635 15.033 2.32143L14.2178 4.45341C12.9605 2.0759 10.3983 0.5 7.50004 0.5C3.32389 0.5 3.62396e-05 3.82386 3.62396e-05 8C3.62396e-05 12.1761 3.32389 15.5 7.50004 15.5C10.9279 15.5 13.9251 13.1464 14.7832 9.92883C14.8543 9.66201 14.6957 9.38803 14.4289 9.31688C14.162 9.24573 13.8881 9.40435 13.8169 9.67117C13.0749 12.4536 10.4722 14.5 7.50004 14.5C3.87618 14.5 1.00004 11.6239 1.00004 8C1.00004 4.37614 3.87618 1.5 7.50004 1.5Z"/>
	</g>
</svg>
