<svg version="1.1" id="Layer_1" xmlns="http://www.w3.org/2000/svg" xmlns:xlink="http://www.w3.org/1999/xlink" x="0px" y="0px"
	 viewBox="0 0 16 16" style="enable-background:new 0 0 16 16;" xml:space="preserve">
<g id="Outline_Icons">

<path d="M1,7.7c0,3.8,2.8,6.4,5.9,7c0.3,0,0.5,0.3,0.4,0.6
	c0,0.3-0.3,0.5-0.6,0.4C3.2,15.1,0,12.1,0,7.7c0-1.9,0.8-3.3,1.8-4.4c0.8-0.9,1.8-1.7,2.5-2.2H1.9c-0.3,0-0.5-0.2-0.5-0.5
	s0.2-0.5,0.5-0.5l3.7,0c0.3,0,0.5,0.2,0.5,0.5v3.7c0,0.3-0.2,0.5-0.5,0.5c-0.3,0-0.5-0.2-0.5-0.5V1.8C5.1,1.8,5,1.9,4.9,1.9
	C4.2,2.5,3.3,3.1,2.6,4C1.7,5,1,6.2,1,7.7z M15,8.3c0-3.8-2.7-6.4-5.8-7C8.9,1.2,8.7,1,8.8,0.7s0.3-0.5,0.6-0.4
	C12.9,1,16,3.9,16,8.3c0,1.9-0.8,3.3-1.8,4.4c-0.8,0.9-1.8,1.7-2.5,2.2h2.4c0.3,0,0.5,0.2,0.5,0.5c0,0.3-0.2,0.5-0.5,0.5h-3.7
	c-0.3,0-0.5-0.2-0.5-0.5v-3.7c0-0.3,0.2-0.5,0.5-0.5c0.3,0,0.5,0.2,0.5,0.5v2.5c0.1,0,0.1-0.1,0.2-0.2l0,0c0.7-0.5,1.6-1.2,2.3-2
	C14.3,11,15,9.8,15,8.3z" fill="#26282A"/>
	</g>
</svg>
