<svg version="1.1" id="Layer_1" xmlns="http://www.w3.org/2000/svg" xmlns:xlink="http://www.w3.org/1999/xlink" x="0px" y="0px"
	 viewBox="0 0 16 16" style="enable-background:new 0 0 16 16;" xml:space="preserve">
	<g id="Outline_Icons">
		<path fill-rule="evenodd" clip-rule="evenodd" d="M1 4.25C1 3.83579 1.33579 3.5 1.75 3.5H10.5C10.9142 3.5 11.25 3.83579 11.25 4.25V6.13001V9.88001V11.75C11.25 12.1642 10.9142 12.5 10.5 12.5H1.75C1.33579 12.5 1 12.1642 1 11.75V4.25ZM12.25 10.5737V11.75C12.25 12.7165 11.4665 13.5 10.5 13.5H1.75C0.783502 13.5 0 12.7165 0 11.75V4.25C0 3.2835 0.783502 2.5 1.75 2.5H10.5C11.4665 2.5 12.25 3.2835 12.25 4.25V5.4363L15.3419 4.40567C15.4944 4.35484 15.662 4.38041 15.7924 4.47439C15.9227 4.56836 16 4.71929 16 4.88001V11.13C16 11.2907 15.9227 11.4417 15.7924 11.5356C15.662 11.6296 15.4944 11.6552 15.3419 11.6044L12.25 10.5737ZM12.25 9.51963L15 10.4363V5.57372L12.25 6.49039V9.51963Z"/>
	</g>
</svg>
