<svg version="1.1" id="Outline_x5F_Icons" xmlns="http://www.w3.org/2000/svg" xmlns:xlink="http://www.w3.org/1999/xlink" x="0px"
	 y="0px" viewBox="0 0 16 16">
<g id="Outline_Icons">
	<path d="M3.36028 16C3.25972 16.0007 3.16158 15.9692 3.08028 15.91C3.00262 15.8565 2.94169 15.782 2.90453 15.6953C2.86737 15.6086 2.85549 15.5132 2.87028 15.42L3.72028 10.24L0.140278 6.58001C0.0715992 6.51659 0.0220757 6.43518 -0.00267088 6.34503C-0.0274174 6.25488 -0.0263958 6.1596 0.00027803 6.07001C0.0265405 5.98325 0.0773296 5.90594 0.146526 5.84739C0.215722 5.78884 0.300372 5.75155 0.390278 5.74001L5.34028 5.00001L7.55028 0.290007C7.58907 0.203231 7.65227 0.129611 7.73217 0.0781202C7.81207 0.026629 7.90523 -0.000510929 8.00028 7.28481e-06C8.09533 -0.000510929 8.18848 0.026629 8.26838 0.0781202C8.34828 0.129611 8.41148 0.203231 8.45028 0.290007L10.6603 5.00001L15.5803 5.76001C15.6706 5.77031 15.7559 5.80715 15.8253 5.86589C15.8947 5.92462 15.9452 6.00261 15.9703 6.09001C16.0007 6.1769 16.0065 6.2705 15.9871 6.36049C15.9677 6.45048 15.9238 6.53336 15.8603 6.60001L12.2803 10.26L13.1303 15.44C13.1451 15.5332 13.1332 15.6286 13.096 15.7153C13.0589 15.802 12.9979 15.8765 12.9203 15.93C12.8404 15.9786 12.7487 16.0043 12.6553 16.0043C12.5618 16.0043 12.4701 15.9786 12.3903 15.93L8.00028 13.51L3.61028 15.94C3.53299 15.9798 3.44723 16.0004 3.36028 16ZM1.54028 6.58001L4.61028 9.72001C4.66399 9.77657 4.70371 9.84492 4.72629 9.91959C4.74886 9.99425 4.75365 10.0732 4.74028 10.15L4.00028 14.56L7.76028 12.5C7.83414 12.4606 7.91657 12.44 8.00028 12.44C8.08399 12.44 8.16642 12.4606 8.24028 12.5L12.0003 14.56L11.2803 10.15C11.2669 10.0732 11.2717 9.99425 11.2943 9.91959C11.3168 9.84492 11.3566 9.77657 11.4103 9.72001L14.4803 6.58001L10.2603 5.93001C10.18 5.91842 10.1039 5.88665 10.0392 5.83769C9.97449 5.78872 9.92326 5.72415 9.89028 5.65001L8.00028 1.68001L6.13028 5.68001C6.0973 5.75415 6.04606 5.81872 5.98136 5.86769C5.91665 5.91665 5.84059 5.94842 5.76028 5.96001L1.54028 6.58001Z"/>
</g>
</svg>
