<svg version="1.1" id="Layer_1" xmlns="http://www.w3.org/2000/svg" xmlns:xlink="http://www.w3.org/1999/xlink" x="0px" y="0px"
	 viewBox="0 0 16 16" style="enable-background:new 0 0 16 16;" xml:space="preserve">
	<g id="Outline_Icons">
		<path d="M13,3.8c-0.9,0-1.7,0.8-1.7,1.7c0,0.8,0.6,1.5,1.3,1.7v4.5c0,1.8-1.5,3.3-3.3,3.3S6,13.5,6,11.7V9.3c2-0.3,3.7-2,3.7-4.2v-4
			c0-0.2-0.1-0.4-0.3-0.5L7.7,0C7.5-0.1,7.2,0.1,7.1,0.3C7,0.6,7.1,0.9,7.4,1l1.3,0.5v3.6c0,1.8-1.5,3.2-3.2,3.2S2.3,6.9,2.3,5.1V1.5
			L3.6,1C3.9,0.9,4,0.6,3.9,0.3C3.8,0.1,3.5-0.1,3.3,0L1.6,0.6C1.4,0.7,1.3,0.9,1.3,1.1v4c0,2.2,1.7,4,3.7,4.2v2.4
			C5,14.1,6.9,16,9.3,16c2.4,0,4.3-1.9,4.3-4.3V7.1c0.6-0.3,1.1-0.9,1.1-1.6C14.7,4.6,13.9,3.8,13,3.8z M13,6.2
			c-0.3,0-0.7-0.3-0.7-0.7c0-0.4,0.3-0.7,0.7-0.7s0.7,0.3,0.7,0.7C13.7,5.9,13.4,6.2,13,6.2z"/>
	</g>
</svg>
