<svg version="1.1" id="Outline_x5F_Icons" xmlns="http://www.w3.org/2000/svg" xmlns:xlink="http://www.w3.org/1999/xlink" x="0px"
	 y="0px" viewBox="0 0 16 16">
<g id="Outline_Icons">
	<path fill-rule="evenodd" clip-rule="evenodd" d="M5.15385 7.99998C5.15385 9.14703 4.22398 10.0769 3.07692 10.0769C1.92987 10.0769 1 9.14703 1 7.99998C1 6.85293 1.92987 5.92306 3.07692 5.92306C4.22398 5.92306 5.15385 6.85293 5.15385 7.99998ZM5.80806 9.41851C5.2952 10.4039 4.26465 11.0769 3.07692 11.0769C1.37759 11.0769 -2.75422e-07 9.69932 -3.49703e-07 7.99998C-4.23983e-07 6.30064 1.37759 4.92306 3.07692 4.92306C4.26464 4.92306 5.29518 5.59601 5.80805 6.58142L9.73 3.63996L9.87858 3.52853C9.85692 3.3812 9.8457 3.23047 9.8457 3.07713C9.8457 1.37779 11.2233 0.000205503 12.9226 0.000205429C14.622 0.000205355 15.9995 1.37779 15.9995 3.07713C15.9995 4.77647 14.622 6.15405 12.9226 6.15405C11.7127 6.15405 10.6658 5.45567 10.1632 4.44003L6.27 7.35996L6.11008 7.4799C6.13886 7.64896 6.15385 7.82272 6.15385 7.99998C6.15385 8.17723 6.13886 8.35098 6.11008 8.52003L6.27 8.63996L10.1634 11.56C10.6661 10.5446 11.7128 9.8464 12.9226 9.8464C14.622 9.8464 15.9995 11.224 15.9995 12.9233C15.9995 14.6227 14.622 16.0002 12.9226 16.0002C11.2233 16.0002 9.8457 14.6227 9.8457 12.9233C9.8457 12.7698 9.85694 12.6189 9.87865 12.4714L9.73 12.36L5.80806 9.41851ZM12.9226 5.15405C14.0697 5.15405 14.9995 4.22418 14.9995 3.07713C14.9995 1.93008 14.0697 1.00021 12.9226 1.00021C11.7756 1.00021 10.8457 1.93008 10.8457 3.07713C10.8457 4.22418 11.7756 5.15405 12.9226 5.15405ZM14.9995 12.9233C14.9995 14.0704 14.0697 15.0002 12.9226 15.0002C11.7756 15.0002 10.8457 14.0704 10.8457 12.9233C10.8457 11.7763 11.7756 10.8464 12.9226 10.8464C14.0697 10.8464 14.9995 11.7763 14.9995 12.9233Z"/>
</g>
</svg>
