<svg width="16" height="17" viewBox="0 0 16 17" fill="none" xmlns="http://www.w3.org/2000/svg">
<g id="Outline_Icons">
<path fill-rule="evenodd" clip-rule="evenodd" d="M7.46813 0.631487C7.46813 0.282676 7.18536 -9.15527e-05 6.83655 -9.15527e-05C6.48774 -9.15527e-05 6.20497 0.282676 6.20497 0.631487V2.19094C6.20497 2.53975 6.48774 2.82252 6.83655 2.82252C7.18536 2.82252 7.46813 2.53975 7.46813 2.19094V2.04267H7.61219C8.11697 2.04267 8.53185 2.45495 8.53185 2.97055V6.40286C8.53185 8.42567 6.90156 10.0598 4.89751 10.0598C2.89345 10.0598 1.26316 8.42567 1.26316 6.40286V2.97055C1.26316 2.45495 1.67804 2.04267 2.18282 2.04267H2.32689V2.19094C2.32689 2.53975 2.60966 2.82252 2.95847 2.82252C3.30728 2.82252 3.59005 2.53975 3.59005 2.19094V0.631487C3.59005 0.282676 3.30728 -9.15527e-05 2.95847 -9.15527e-05C2.60966 -9.15527e-05 2.32689 0.282676 2.32689 0.631487V0.779514H2.18282C0.974146 0.779514 0 1.76362 0 2.97055V6.40286C0 8.77591 1.67381 10.7605 3.90445 11.2218C4.07282 12.9094 5.03775 14.4292 6.51949 15.2892C8.15541 16.2387 10.1714 16.2387 11.8073 15.2892C13.4428 14.34 14.4487 12.5868 14.4487 10.6914V8.89088C15.3479 8.61869 16 7.78035 16 6.79286C16 5.58593 15.0259 4.60182 13.8172 4.60182C12.6085 4.60182 11.6344 5.58593 11.6344 6.79286C11.6344 7.78033 12.2864 8.61864 13.1856 8.89085V10.6914C13.1856 12.1388 12.4174 13.4746 11.1732 14.1967C9.9294 14.9187 8.3974 14.9187 7.15357 14.1967C6.09033 13.5796 5.37476 12.5144 5.1891 11.3144C7.76092 11.1628 9.79501 9.01888 9.79501 6.40286V2.97055C9.79501 1.76362 8.82086 0.779514 7.61219 0.779514H7.46813V0.631487ZM13.8248 7.7207C13.8222 7.72067 13.8197 7.72065 13.8171 7.72065C13.8146 7.72065 13.8121 7.72067 13.8095 7.7207C13.3082 7.71656 12.8975 7.30585 12.8975 6.79286C12.8975 6.27726 13.3124 5.86498 13.8172 5.86498C14.322 5.86498 14.7368 6.27726 14.7368 6.79286C14.7368 7.30587 14.3261 7.71659 13.8248 7.7207Z"/>
</g>
</svg>
