<svg xmlns="http://www.w3.org/2000/svg" viewBox="0 0 16 16">
	<g id="Outline_Icons">
		<path d="M3.25 4.74C3.25 3.22674 4.47674 2 5.99 2C7.50326 2 8.73 3.22674 8.73 4.74C8.73 6.25326 7.50326 7.48 5.99 7.48C4.47674 7.48 3.25 6.25326 3.25 4.74ZM5.99 1C3.92445 1 2.25 2.67445 2.25 4.74C2.25 6.80554 3.92445 8.48 5.99 8.48C8.05554 8.48 9.73 6.80554 9.73 4.74C9.73 2.67445 8.05554 1 5.99 1ZM1 15C1 12.2162 3.20614 10.01 5.99 10.01H6.17C8.95385 10.01 11.16 12.2162 11.16 15C11.16 15.2761 11.3838 15.5 11.66 15.5C11.9361 15.5 12.16 15.2761 12.16 15C12.16 11.6639 9.50614 9.01001 6.17 9.01001H5.99C2.65386 9.01001 0 11.6639 0 15C0 15.2761 0.223858 15.5 0.5 15.5C0.776142 15.5 1 15.2761 1 15ZM11.6465 4.24215C11.4513 4.43741 11.4513 4.75399 11.6465 4.94926L13.0429 6.34566L11.6465 7.74207C11.4513 7.93733 11.4513 8.25391 11.6465 8.44918C11.8418 8.64444 12.1584 8.64444 12.3536 8.44918L13.75 7.05277L15.1464 8.44918C15.3417 8.64444 15.6583 8.64444 15.8536 8.44918C16.0488 8.25391 16.0488 7.93733 15.8536 7.74207L14.4571 6.34566L15.8536 4.94926C16.0488 4.75399 16.0488 4.43741 15.8536 4.24215C15.6583 4.04689 15.3417 4.04689 15.1464 4.24215L13.75 5.63856L12.3536 4.24215C12.1584 4.04689 11.8418 4.04689 11.6465 4.24215Z" />
	</g>
</svg>
